<svg id="Capa_1" enable-background="new 0 0 512 512" height="512" viewBox="0 0 512 512" width="512" xmlns="http://www.w3.org/2000/svg" xmlns:xlink="http://www.w3.org/1999/xlink"><linearGradient id="lg1"><stop offset="0" stop-color="#364aff"/><stop offset="1" stop-color="#fc54ff"/></linearGradient><linearGradient id="SVGID_1_" gradientUnits="userSpaceOnUse" x1="74.981" x2="437.02" xlink:href="#lg1" y1="437.019" y2="74.98"/><radialGradient id="SVGID_2_" cx="256.001" cy="256" gradientUnits="userSpaceOnUse" r="258.6"><stop offset="0" stop-color="#8d00db" stop-opacity=".66"/><stop offset=".2069" stop-color="#9f0de1" stop-opacity=".523"/><stop offset=".6178" stop-color="#cc30f0" stop-opacity=".252"/><stop offset="1" stop-color="#fc54ff" stop-opacity="0"/></radialGradient><linearGradient id="lg2"><stop offset="0" stop-color="#230be0"/><stop offset="1" stop-color="#fc54ff"/></linearGradient><linearGradient id="SVGID_3_" gradientUnits="userSpaceOnUse" x1="-236.813" x2="598.812" xlink:href="#lg2" y1="639.887" y2="-195.738"/><linearGradient id="SVGID_4_" gradientUnits="userSpaceOnUse" x1="-61.077" x2="798.281" xlink:href="#lg2" y1="842.002" y2="-17.356"/><linearGradient id="SVGID_5_" gradientUnits="userSpaceOnUse" x1="-245.727" x2="597.282" xlink:href="#lg2" y1="750.309" y2="-92.7"/><linearGradient id="SVGID_6_" gradientUnits="userSpaceOnUse" x1="-53.057" x2="646.904" xlink:href="#lg2" y1="424.732" y2="-275.229"/><linearGradient id="SVGID_7_" gradientUnits="userSpaceOnUse" x1="127.141" x2="827.102" xlink:href="#lg2" y1="525.184" y2="-174.776"/><linearGradient id="SVGID_8_" gradientUnits="userSpaceOnUse" x1="64.222" x2="766.786" xlink:href="#lg2" y1="578.827" y2="-123.737"/><linearGradient id="SVGID_9_" gradientUnits="userSpaceOnUse" x1="98.494" x2="784.096" xlink:href="#lg2" y1="413.506" y2="-272.096"/><linearGradient id="SVGID_10_" gradientUnits="userSpaceOnUse" x1="47.693" x2="417.578" y1="464.308" y2="94.422"><stop offset="0" stop-color="#fc54ff"/><stop offset="1" stop-color="#fff"/></linearGradient><linearGradient id="SVGID_11_" gradientUnits="userSpaceOnUse" x1="214.038" x2="287.165" xlink:href="#lg1" y1="297.962" y2="224.835"/><g><circle cx="256" cy="256" fill="url(#SVGID_1_)" r="256"/><circle cx="256" cy="256" fill="url(#SVGID_2_)" r="256"/><path d="m85.853 152.844c-19.324 30.448-30.767 65.619-30.753 103.156-.034 54.029 23.771 103.429 60.575 140.325 18.122.447 36.245.808 54.367 1.082-28.978-82.401-58.077-164.275-84.189-244.563z" fill="url(#SVGID_3_)"/><path d="m442.324 328.174c-23.36 22.679-46.755 45.642-69.991 68.693 7.997-.164 15.995-.344 23.992-.542 19.53-19.54 35.407-42.71 45.999-68.151z" fill="url(#SVGID_4_)"/><path d="m396.325 115.675c-93.55-2.31-187.1-2.31-280.651 0-11.263 11.264-21.301 23.75-29.821 37.17-9.59 22.77-15.043 47.358-15.221 73.045-.457 58.027 26.391 110.573 67.636 147.842 83.096 5.957 166.031 10.569 248.778 13.314 21.951-16.004 40.876-36.092 55.277-58.871 9.365-22.5 14.58-46.783 14.576-72.174.035-54.031-23.77-103.43-60.574-140.326z" fill="url(#SVGID_5_)"/><path d="m396.325 115.675c-36.896-36.804-86.296-60.609-140.325-60.575-54.03-.034-103.429 23.772-140.325 60.575l140.325 140.325c47.353-47.353 94.705-94.705 140.325-140.325z" fill="url(#SVGID_6_)"/><path d="m387.049 387.049c-82.748-2.746-165.685-7.359-248.781-13.316-7.572 7.573-15.106 15.106-22.593 22.593 36.896 36.803 86.296 60.608 140.325 60.574 54.029.034 103.429-23.771 140.325-60.575-3.084-3.084-6.177-6.176-9.276-9.276z" fill="url(#SVGID_7_)"/><path d="m138.267 373.733c35.867 32.27 82.251 52.536 132.839 52.342 42.893-.121 82.793-14.882 115.943-39.026-42.747-42.747-86.898-86.898-131.049-131.049-39.581 39.581-79.163 79.163-117.733 117.733z" fill="url(#SVGID_8_)"/><circle cx="256" cy="256" fill="url(#SVGID_9_)" r="108.65"/><circle cx="256" cy="256" fill="url(#SVGID_10_)" r="77.9"/><path d="m256 240.625c-8.49 0-15.375 6.885-15.375 15.375s6.885 15.375 15.375 15.375 15.375-6.885 15.375-15.375-6.885-15.375-15.375-15.375z" fill="url(#SVGID_11_)"/></g></svg>