<svg id="Capa_1" enable-background="new 0 0 520 520" height="512" viewBox="0 0 520 520" width="512" xmlns="http://www.w3.org/2000/svg"><g><path d="m430 45h-219.002c-5.428 0-10.433 2.933-13.086 7.669-2.653 4.735-2.541 10.535.294 15.165l48.992 80c2.727 4.452 7.571 7.166 12.792 7.166h200.01c8.284 0 15-6.716 15-15v-50c0-24.813-20.187-45-45-45z" fill="#ffb300"/><path d="m475 125.016h-206.597l-56.861-92.85c-2.727-4.452-7.571-7.166-12.792-7.166h-153.75c-24.813 0-45 20.187-45 45v380c0 24.813 20.187 45 45 45h430c24.813 0 45-20.187 45-45v-279.984c0-24.814-20.187-45-45-45z" fill="#fdd835"/><path d="m339.104 227.714c-4.008-2.808-9.134-3.481-13.731-1.811l-110 40c-5.928 2.155-9.874 7.789-9.874 14.097v67.58c-4.695-1.665-9.742-2.58-15-2.58-24.813 0-45 20.187-45 45s20.187 45 45 45 45-20.187 45-45v-99.493l80-29.092v66.165c-4.695-1.665-9.742-2.58-15-2.58-24.813 0-45 20.187-45 45s20.187 45 45 45 45-20.187 45-45v-130c0-4.894-2.387-9.479-6.395-12.286z" fill="#64b5f6"/><path d="m430 45h-170v110h200c8.284 0 15-6.716 15-15v-50c0-24.813-20.187-45-45-45z" fill="#ff8f00"/><path d="m475 125.016h-206.597l-8.403-13.722v383.706h215c24.813 0 45-20.187 45-45v-279.984c0-24.814-20.187-45-45-45z" fill="#fbc02d"/><path d="m339.104 227.714c-4.008-2.808-9.134-3.481-13.731-1.811l-65.373 23.772v31.921l55.499-20.182v66.165c-4.695-1.665-9.742-2.58-15-2.58-17.79 0-33.199 10.378-40.499 25.396v39.207c7.299 15.02 22.709 25.398 40.499 25.398 24.813 0 45-20.187 45-45v-130c0-4.894-2.387-9.479-6.395-12.286z" fill="#1e88e5"/></g></svg>