<svg id="Capa_1" enable-background="new 0 0 520 520" height="512" viewBox="0 0 520 520" width="512" xmlns="http://www.w3.org/2000/svg"><g><path d="m475 125.016v-35.016c0-24.813-20.187-45-45-45h-210.598l-7.86-12.834c-2.727-4.452-7.571-7.166-12.792-7.166h-153.75c-24.813 0-45 20.187-45 45v380c0 24.813 20.187 45 45 45h430c24.813 0 45-20.187 45-45v-279.984c0-24.814-20.187-45-45-45zm-45-50.016c8.271 0 15 6.729 15 15v35h-176.606l-30.62-50zm60 375c0 8.271-6.729 15-15 15h-430c-8.271 0-15-6.729-15-15v-380c0-8.271 6.729-15 15-15h145.347l7.857 12.83c.001.001.002.002.002.004l48.992 80c.001.001.002.003.003.004l.007.011c2.727 4.452 7.571 7.166 12.792 7.166h215c8.271 0 15 6.729 15 15z"/><path d="m339.104 227.714c-4.008-2.808-9.134-3.481-13.731-1.811l-110 40c-5.928 2.155-9.874 7.789-9.874 14.097v67.58c-4.695-1.665-9.742-2.58-15-2.58-24.813 0-45 20.187-45 45s20.187 45 45 45 45-20.187 45-45v-99.493l80-29.092v66.165c-4.695-1.665-9.742-2.58-15-2.58-24.813 0-45 20.187-45 45s20.187 45 45 45 45-20.187 45-45v-130c0-4.894-2.387-9.479-6.395-12.286zm-148.605 177.286c-8.271 0-15-6.729-15-15s6.729-15 15-15 15 6.729 15 15-6.729 15-15 15zm110-20c-8.271 0-15-6.729-15-15s6.729-15 15-15 15 6.729 15 15-6.729 15-15 15z"/></g></svg>